<svg xmlns="http://www.w3.org/2000/svg" version="1.1" xmlns:xlink="http://www.w3.org/1999/xlink" width="1000" height="1000"><metadata><rdf:RDF xmlns:rdf="http://www.w3.org/1999/02/22-rdf-syntax-ns#" xmlns:dc="http://purl.org/dc/elements/1.1/"><rdf:Description><dc:creator>RealFaviconGenerator</dc:creator><dc:source>https://realfavicongenerator.net</dc:source></rdf:Description></rdf:RDF></metadata><style>
    #light-icon {
      display: inline;
    }
    #dark-icon {
      display: none;
    }

    @media (prefers-color-scheme: dark) {
      #light-icon {
        display: none;
      }
      #dark-icon {
        display: inline;
      }
    }
  </style><g id="light-icon"><svg xmlns="http://www.w3.org/2000/svg" version="1.1" xmlns:xlink="http://www.w3.org/1999/xlink" width="1000" height="1000"><g clip-path="url(#SvgjsClipPath1242)"><rect width="1000" height="1000" fill="#1d4ed8"></rect><g transform="matrix(33.333333333333336,0,0,33.333333333333336,100,100)"><svg xmlns="http://www.w3.org/2000/svg" height="24px" viewBox="0 -960 960 960" width="24px" fill="#ffffff"><path d="M162-520h114q-6-38-23-71t-43-59q-18 29-30.5 61.5T162-520Zm522 0h114q-5-36-17.5-68.5T750-650q-26 26-43 59t-23 71ZM210-310q26-26 43-59t23-71H162q5 36 17.5 68.5T210-310Zm540 0q18-29 30.5-61.5T798-440H684q6 38 23 71t43 59ZM358-520h82v-278q-53 8-98.5 29.5T260-712q39 38 64.5 86.5T358-520Zm162 0h82q8-57 33.5-105.5T700-712q-36-35-81.5-56.5T520-798v278Zm-80 358v-278h-82q-8 57-33.5 105.5T260-248q36 35 81.5 56.5T440-162Zm80 0q53-8 98.5-29.5T700-248q-39-38-64.5-86.5T602-440h-82v278Zm-40-318Zm0 400q-83 0-156-31.5T197-197q-54-54-85.5-127T80-480q0-83 31.5-156T197-763q54-54 127-85.5T480-880q83 0 156 31.5T763-763q54 54 85.5 127T880-480q0 83-31.5 156T763-197q-54 54-127 85.5T480-80Z"></path></svg></g></g><defs><clipPath id="SvgjsClipPath1242"><rect width="1000" height="1000" x="0" y="0" rx="350" ry="350"></rect></clipPath></defs></svg></g><g id="dark-icon"><svg xmlns="http://www.w3.org/2000/svg" version="1.1" xmlns:xlink="http://www.w3.org/1999/xlink" width="1000" height="1000"><g clip-path="url(#SvgjsClipPath1243)"><rect width="1000" height="1000" fill="#1d4ed8"></rect><g transform="matrix(29.166666666666668,0,0,29.166666666666668,150,150)"><svg xmlns="http://www.w3.org/2000/svg" height="24px" viewBox="0 -960 960 960" width="24px" fill="#ffffff"><path d="M162-520h114q-6-38-23-71t-43-59q-18 29-30.5 61.5T162-520Zm522 0h114q-5-36-17.5-68.5T750-650q-26 26-43 59t-23 71ZM210-310q26-26 43-59t23-71H162q5 36 17.5 68.5T210-310Zm540 0q18-29 30.5-61.5T798-440H684q6 38 23 71t43 59ZM358-520h82v-278q-53 8-98.5 29.5T260-712q39 38 64.5 86.5T358-520Zm162 0h82q8-57 33.5-105.5T700-712q-36-35-81.5-56.5T520-798v278Zm-80 358v-278h-82q-8 57-33.5 105.5T260-248q36 35 81.5 56.5T440-162Zm80 0q53-8 98.5-29.5T700-248q-39-38-64.5-86.5T602-440h-82v278Zm-40-318Zm0 400q-83 0-156-31.5T197-197q-54-54-85.5-127T80-480q0-83 31.5-156T197-763q54-54 127-85.5T480-880q83 0 156 31.5T763-763q54 54 85.5 127T880-480q0 83-31.5 156T763-197q-54 54-127 85.5T480-80Z"></path></svg></g></g><defs><clipPath id="SvgjsClipPath1243"><rect width="1000" height="1000" x="0" y="0" rx="350" ry="350"></rect></clipPath></defs></svg></g></svg>